<svg xmlns:dc="http://purl.org/dc/elements/1.1/" xmlns:cc="http://creativecommons.org/ns#" xmlns:rdf="http://www.w3.org/1999/02/22-rdf-syntax-ns#" xmlns:svg="http://www.w3.org/2000/svg" xmlns="http://www.w3.org/2000/svg" xmlns:sodipodi="http://sodipodi.sourceforge.net/DTD/sodipodi-0.dtd" xmlns:inkscape="http://www.inkscape.org/namespaces/inkscape" version="1.1" x="0px" y="0px" viewBox="0 0 100 100" enable-background="new 0 0 100 100" xml:space="preserve"><title>File Tree</title><g><path style="" d="M 7.5,25.805214 V 9.2007497 c 0,-2.3628153 1.7188735,-4.2007498 3.903762,-4.2007498 h 32.187129 c 2.17866,0 3.909109,1.8370825 3.909109,4.2007498 V 25.804363 C 47.5,28.162916 45.770444,30 43.590891,30 H 11.402868 C 9.2179799,30.000851 7.5,28.162916 7.5,25.805214 z M 42.517157,9.7682348 H 12.481962 V 25.240285 H 42.517157 V 9.7682348 z" fill="#000000"></path><g transform="matrix(1.3278197,0,0,1.2197353,-4.1380544,14.987192)"><path d="m 72.7795,65.5985 v -14.049 c 0,-1.293 -1.00873,-2.348 -2.26603,-2.348 H 48.67979 c -1.25056,0 -2.25929,1.055 -2.25929,2.348 v 14.049" style="" fill="#000000"></path></g><g transform="matrix(1.3278197,0,0,1.2197353,-4.1380544,-10.012806)"><path d="m 72.7795,65.5985 v -14.049 c 0,-1.293 -1.00873,-2.348 -2.26603,-2.348 H 48.67979 c -1.25056,0 -2.25929,1.055 -2.25929,2.348 v 14.049" style="" fill="#000000"></path></g><g transform="matrix(1.3278197,0,0,1.2197353,-4.1380544,-35.012806)"><path d="m 72.7795,65.5985 v -14.049 c 0,-1.293 -1.00873,-2.348 -2.26603,-2.348 H 48.67979 c -1.25056,0 -2.25929,1.055 -2.25929,2.348 v 14.049" style="" fill="#000000"></path></g><rect y="35.380104" x="32.880104" height="4.1722913" width="24.239792" style="" fill="#000000" fill-rule="evenodd" stroke="#000000" stroke-width="0.76020855px" stroke-linecap="butt" stroke-linejoin="miter" stroke-opacity="1"></rect><rect transform="matrix(0,1,-1,0,0,0)" y="-31.93025" x="30.569752" height="3.8604991" width="58.8605" style="" fill="#000000" fill-rule="evenodd" stroke="#000000" stroke-width="1.13950086px" stroke-linecap="butt" stroke-linejoin="miter" stroke-opacity="1"></rect><rect y="60.413857" x="32.880104" height="4.1722913" width="24.239792" style="" fill="#000000" fill-rule="evenodd" stroke="#000000" stroke-width="0.76020855px" stroke-linecap="butt" stroke-linejoin="miter" stroke-opacity="1"></rect><rect y="85.447601" x="32.880104" height="4.1722913" width="24.239792" style="" fill="#000000" fill-rule="evenodd" stroke="#000000" stroke-width="0.76020855px" stroke-linecap="butt" stroke-linejoin="miter" stroke-opacity="1"></rect></g></svg>