<svg xmlns="http://www.w3.org/2000/svg" width="2500" height="974" viewBox="0 0 2500 974">
  <g fill="none" fill-rule="evenodd" stroke="#FFFFFF" stroke-width="3" stroke-linecap="round" stroke-linejoin="round" opacity=".1">
    <g transform="translate(1624 412)">
      <path d="M.235294118.235294118L7.82330143 7.82330143M7.76470588.235294118L.176698572 7.82330143"/>
    </g>
    <g transform="rotate(-45 1029.96 -2019.966)">
      <path d="M.235294118.235294118L7.82330143 7.82330143M7.76470588.235294118L.176698572 7.82330143"/>
    </g>
    <g transform="rotate(-45 1740.661 -1861.349)">
      <path d="M.235294118.235294118L7.82330143 7.82330143M7.76470588.235294118L.176698572 7.82330143"/>
    </g>
    <g transform="translate(296 199)">
      <path d="M.235294118.235294118L7.82330143 7.82330143M7.76470588.235294118L.176698572 7.82330143"/>
    </g>
    <g transform="translate(288 545)">
      <path d="M.235294118.235294118L7.82330143 7.82330143M7.76470588.235294118L.176698572 7.82330143"/>
    </g>
    <g transform="translate(602 357)">
      <path d="M.235294118.235294118L7.82330143 7.82330143M7.76470588.235294118L.176698572 7.82330143"/>
    </g>
    <g transform="rotate(-45 1044.208 -541.868)">
      <path d="M.235294118.235294118L7.82330143 7.82330143M7.76470588.235294118L.176698572 7.82330143"/>
    </g>
    <ellipse cx="4" cy="4" rx="4" ry="4" transform="translate(388 313)"/>
    <circle cx="1702" cy="230" r="10"/>
    <g transform="rotate(-45 1283.462 -2870.97)">
      <path d="M.235294118.235294118L7.82330143 7.82330143M7.76470588.235294118L.176698572 7.82330143"/>
    </g>
    <ellipse cx="4" cy="4" rx="4" ry="4" transform="translate(2330 524)"/>
    <g transform="translate(2288 158)">
      <path d="M.235294118.235294118L7.82330143 7.82330143M7.76470588.235294118L.176698572 7.82330143"/>
    </g>
    <ellipse cx="4" cy="4" rx="4" ry="4" transform="translate(133 176)"/>
    <circle cx="190" cy="647" r="10"/>
    <circle cx="1722" cy="857" r="10"/>
    <g transform="rotate(-90 460 64)">
      <g transform="rotate(-135 41.879 7.263)">
        <ellipse cx="4.05" cy="4.707" rx="4" ry="4"/>
        <path d="M8,5 L41.5931549,5"/>
        <ellipse cx="46" cy="4" rx="4" ry="4"/>
      </g>
      <g transform="scale(1 -1) rotate(45 52.012 -12.632)">
        <ellipse cx="4" cy="4" rx="4" ry="4"/>
        <path d="M8,4 L41.5931549,4"/>
      </g>
    </g>
    <g transform="rotate(-45 1882.548 -2354.12)">
      <path d="M.235294118.235294118L7.82330143 7.82330143M7.76470588.235294118L.176698572 7.82330143"/>
    </g>
    <g transform="rotate(-45 2007.983 -2592.077)">
      <path d="M.235294118.235294118L7.82330143 7.82330143M7.76470588.235294118L.176698572 7.82330143"/>
    </g>
    <g transform="rotate(-45 1683.55 -2689.692)">
      <path d="M.235294118.235294118L7.82330143 7.82330143M7.76470588.235294118L.176698572 7.82330143"/>
    </g>
    <g transform="rotate(-45 1483.756 -2780.935)">
      <path d="M.235294118.235294118L7.82330143 7.82330143M7.76470588.235294118L.176698572 7.82330143"/>
    </g>
    <ellipse cx="4" cy="4" rx="4" ry="4" transform="translate(594 59)"/>
    <g transform="rotate(-45 992.214 -317.332)">
      <path d="M.235294118.235294118L7.82330143 7.82330143M7.76470588.235294118L.176698572 7.82330143"/>
    </g>
    <g transform="rotate(-45 141.305 -140.874)">
      <path d="M.235294118.235294118L7.82330143 7.82330143M7.76470588.235294118L.176698572 7.82330143"/>
    </g>
    <g transform="rotate(-45 384.34 105.458)">
      <path d="M.235294118.235294118L7.82330143 7.82330143M7.76470588.235294118L.176698572 7.82330143"/>
    </g>
    <g transform="rotate(-45 1072.173 -49.452)">
      <path d="M.235294118.235294118L7.82330143 7.82330143M7.76470588.235294118L.176698572 7.82330143"/>
    </g>
    <g transform="rotate(-45 1072.173 -49.452)">
      <path d="M.235294118.235294118L7.82330143 7.82330143M7.76470588.235294118L.176698572 7.82330143"/>
    </g>
    <g transform="translate(1954 207)">
      <path d="M.235294118.235294118L7.82330143 7.82330143M7.76470588.235294118L.176698572 7.82330143"/>
    </g>
    <ellipse cx="4" cy="4" rx="4" ry="4" transform="translate(1809 28)"/>
    <ellipse cx="4" cy="4" rx="4" ry="4" transform="translate(2202 349)"/>
    <ellipse cx="4" cy="4" rx="4" ry="4" transform="translate(655 463)"/>
    <ellipse cx="4" cy="4" rx="4" ry="4" transform="translate(1147 730)"/>
    <ellipse cx="4" cy="4" rx="4" ry="4" transform="translate(476 172)"/>
    <g transform="translate(102 524)">
      <ellipse cx="4" cy="4" rx="4" ry="4"/>
      <path d="M8,4 L41.5931549,4"/>
      <ellipse cx="46" cy="4" rx="4" ry="4"/>
    </g>
    <circle cx="392" cy="70" r="10"/>
    <g transform="rotate(-90 1176.5 -640.5)">
      <ellipse cx="4" cy="4" rx="4" ry="4"/>
      <path d="M8,4 L41.5931549,4"/>
      <ellipse cx="46" cy="4" rx="4" ry="4"/>
    </g>
    <g transform="rotate(-45 613.378 -92.413)">
      <path d="M.235294118.235294118L7.82330143 7.82330143M7.76470588.235294118L.176698572 7.82330143"/>
    </g>
    <g transform="rotate(-45 1182.681 -2426.226)">
      <path d="M.235294118.235294118L7.82330143 7.82330143M7.76470588.235294118L.176698572 7.82330143"/>
    </g>
    <g transform="translate(2140 507)">
      <path d="M.235294118.235294118L7.82330143 7.82330143M7.76470588.235294118L.176698572 7.82330143"/>
    </g>
    <g transform="rotate(-45 766.082 -795.665)">
      <path d="M.235294118.235294118L7.82330143 7.82330143M7.76470588.235294118L.176698572 7.82330143"/>
    </g>
    <g transform="rotate(-45 555.765 -680.548)">
      <path d="M.235294118.235294118L7.82330143 7.82330143M7.76470588.235294118L.176698572 7.82330143"/>
    </g>
    <g transform="translate(594 754)">
      <path d="M.235294118.235294118L7.82330143 7.82330143M7.76470588.235294118L.176698572 7.82330143"/>
    </g>
    <ellipse cx="4" cy="4" rx="4" ry="4" transform="translate(602 880)"/>
    <ellipse cx="4" cy="4" rx="4" ry="4" transform="translate(869 184)"/>
    <g transform="rotate(-45 1352.2 -568.443)">
      <path d="M.235294118.235294118L7.82330143 7.82330143M7.76470588.235294118L.176698572 7.82330143"/>
    </g>
    <ellipse cx="4" cy="4" rx="4" ry="4" transform="translate(1508 566)"/>
    <g transform="translate(1479 839)">
      <path d="M.235294118.235294118L7.82330143 7.82330143M7.76470588.235294118L.176698572 7.82330143"/>
    </g>
    <g transform="translate(1569 56)">
      <path d="M.235294118.235294118L7.82330143 7.82330143M7.76470588.235294118L.176698572 7.82330143"/>
    </g>
    <g transform="translate(761 56)">
      <path d="M.235294118.235294118L7.82330143 7.82330143M7.76470588.235294118L.176698572 7.82330143"/>
    </g>
    <g transform="rotate(-45 1691.208 -2103.864)">
      <path d="M.235294118.235294118L7.82330143 7.82330143M7.76470588.235294118L.176698572 7.82330143"/>
    </g>
    <ellipse cx="4" cy="4" rx="4" ry="4" transform="translate(2131 754)"/>
    <g transform="translate(1981 876)">
      <path d="M.235294118.235294118L7.82330143 7.82330143M7.76470588.235294118L.176698572 7.82330143"/>
    </g>
    <ellipse cx="4" cy="4" rx="4" ry="4" transform="translate(2430 770)"/>
    <g transform="translate(2238 888)">
      <path d="M.235294118.235294118L7.82330143 7.82330143M7.76470588.235294118L.176698572 7.82330143"/>
    </g>
    <g transform="translate(992 863)">
      <path d="M.235294118.235294118L7.82330143 7.82330143M7.76470588.235294118L.176698572 7.82330143"/>
    </g>
    <circle cx="124" cy="859" r="10"/>
    <ellipse cx="4" cy="4" rx="4" ry="4" transform="translate(360 878)"/>
    <g transform="rotate(-60 1008.742 -430.275)">
      <g transform="rotate(-90 68.5 14.5)">
        <ellipse cx="4" cy="4" rx="4" ry="4"/>
        <path d="M8,4 L41.5931549,4"/>
      </g>
      <g transform="rotate(-135 67.613 39.216)">
        <ellipse cx="4" cy="4" rx="4" ry="4"/>
        <path d="M8,4 L41.5931549,4"/>
        <ellipse cx="118.673" cy="34.034" rx="4" ry="4"/>
      </g>
      <g transform="rotate(-135 37.621 9.228)">
        <ellipse cx="4" cy="4" rx="4" ry="4"/>
        <path d="M8,4 L41.5931549,4"/>
      </g>
    </g>
    <g transform="rotate(-45 1595.534 -1620.235)">
      <path d="M.235294118.235294118L7.82330143 7.82330143M7.76470588.235294118L.176698572 7.82330143"/>
    </g>
    <g transform="rotate(-45 955.748 -789.227)">
      <path d="M.235294118.235294118L7.82330143 7.82330143M7.76470588.235294118L.176698572 7.82330143"/>
    </g>
    <g transform="rotate(-45 1304.644 -1921.744)">
      <path d="M.235294118.235294118L7.82330143 7.82330143M7.76470588.235294118L.176698572 7.82330143"/>
    </g>
  </g>
</svg>
