<svg width="32" height="40" xmlns="http://www.w3.org/2000/svg">

 <g>
  <title>background</title>
  <rect fill="none" id="canvas_background" height="402" width="582" y="-1" x="-1"/>
 </g>
 <g>
  <title>Layer 1</title>
  <g id="svg_1">
   <path fill="#ffcc66" id="svg_2" d="m10,20c-0.091,0 -0.184,-0.013 -0.274,-0.038c-0.43,-0.123 -0.726,-0.516 -0.726,-0.962c0,-8.454 4.583,-12.709 14,-12.985l0,-3.015c0,-0.404 0.243,-0.769 0.617,-0.924c0.375,-0.154 0.804,-0.069 1.09,0.217l7,7c0.391,0.391 0.391,1.023 0,1.414l-7,7c-0.286,0.286 -0.716,0.372 -1.09,0.217c-0.374,-0.154 -0.617,-0.52 -0.617,-0.924l0,-2.992c-5.67,0.057 -8.946,0.362 -12.15,5.519c-0.186,0.3 -0.511,0.473 -0.85,0.473zm15,-14.586l0,1.586c0,0.552 -0.447,1 -1,1c-7.541,0 -11.577,2.387 -12.683,7.645c3.471,-3.577 7.48,-3.606 12.675,-3.645c0.25,-0.021 0.523,0.103 0.712,0.291c0.19,0.187 0.296,0.442 0.296,0.709l0,1.586l4.586,-4.586l-4.586,-4.586z"/>
   <path fill="#ffcc66" id="svg_3" d="m25.5,32l-23,0c-1.378,0 -2.5,-1.121 -2.5,-2.5l0,-17c0,-1.378 1.122,-2.5 2.5,-2.5l4.5,0c0.552,0 1,0.448 1,1s-0.448,1 -1,1l-4.5,0c-0.276,0 -0.5,0.224 -0.5,0.5l0,17c0,0.275 0.224,0.5 0.5,0.5l23,0c0.275,0 0.5,-0.225 0.5,-0.5l0,-9.5c0,-0.553 0.447,-1 1,-1s1,0.447 1,1l0,9.5c0,1.379 -1.121,2.5 -2.5,2.5z"/>
  </g>
  <text id="svg_4" font-family="'Helvetica Neue', Helvetica, Arial-Unicode, Arial, Sans-serif" font-weight="bold" font-size="5px" fill="#000000" y="47" x="0">Created by ✦ Shmidt Sergey ✦</text>
  <text id="svg_5" font-family="'Helvetica Neue', Helvetica, Arial-Unicode, Arial, Sans-serif" font-weight="bold" font-size="5px" fill="#000000" y="52" x="0">from the Noun Project</text>
 </g>
</svg>