<svg xmlns="http://www.w3.org/2000/svg" xmlns:xlink="http://www.w3.org/1999/xlink" version="1.1" x="0px" y="0px" viewBox="0 0 32 40" style="enable-background:new 0 0 32 32;" xml:space="preserve"><g><path fill="white" d="M10,20c-0.091,0-0.184-0.013-0.274-0.038C9.296,19.839,9,19.446,9,19c0-8.454,4.583-12.709,14-12.985V3   c0-0.404,0.243-0.769,0.617-0.924c0.375-0.154,0.804-0.069,1.09,0.217l7,7c0.391,0.391,0.391,1.023,0,1.414l-7,7   c-0.286,0.286-0.716,0.372-1.09,0.217C23.243,17.77,23,17.404,23,17v-2.992c-5.67,0.057-8.946,0.362-12.15,5.519   C10.664,19.827,10.339,20,10,20z M25,5.414V7c0,0.552-0.447,1-1,1c-7.541,0-11.577,2.387-12.683,7.645   c3.471-3.577,7.48-3.606,12.675-3.645c0.25-0.021,0.523,0.103,0.712,0.291C24.894,12.478,25,12.733,25,13v1.586L29.586,10L25,5.414   z"/><path fill="white" d="M25.5,32h-23C1.122,32,0,30.879,0,29.5v-17C0,11.122,1.122,10,2.5,10H7c0.552,0,1,0.448,1,1s-0.448,1-1,1H2.5   C2.224,12,2,12.224,2,12.5v17C2,29.775,2.224,30,2.5,30h23c0.275,0,0.5-0.225,0.5-0.5V20c0-0.553,0.447-1,1-1s1,0.447,1,1v9.5   C28,30.879,26.879,32,25.5,32z"/></g><text x="0" y="47" fill="#FFFFFF" font-size="5px" font-weight="bold" font-family="'Helvetica Neue', Helvetica, Arial-Unicode, Arial, Sans-serif">Created by ✦ Shmidt Sergey ✦</text><text x="0" y="52" fill="#FFFFFF" font-size="5px" font-weight="bold" font-family="'Helvetica Neue', Helvetica, Arial-Unicode, Arial, Sans-serif">from the Noun Project</text></svg>